
  <svg width="36" height="12" viewBox="0 0 36 12" fill="none" xmlns="http://www.w3.org/2000/svg">
    <path
      d="M0.210227 6.11364V5.43182L5.69886 2.63636V3.72727L1.48864 5.75568L1.52273 5.6875V5.85795L1.48864 5.78977L5.69886 7.81818V8.90909L0.210227 6.11364ZM28.6815 0.863636L25.869 11.3125H24.9485L27.761 0.863636H28.6815ZM35.652 6.93182L30.1634 9.72727V8.63636L34.3736 6.60795L34.3395 6.67614V6.50568L34.3736 6.57386L30.1634 4.54545V3.45455L35.652 6.25V6.93182Z"
      fill="#35495E"
    />
    <path
      d="M7.96697 10V1.27273H9.02379V5.15909H13.6772V1.27273H14.734V10H13.6772V6.09659H9.02379V10H7.96697ZM16.8498 10V1.27273H17.9066V5.15909H22.56V1.27273H23.6168V10H22.56V6.09659H17.9066V10H16.8498Z"
      fill="#42B883"
    />
  </svg>

